<svg xmlns="http://www.w3.org/2000/svg" viewBox="0 0 111 180.5"><path d="M25.5 2.5h-23v163.74c14 10.932 94.215 30.26 104.366-30.066S77.018 60.622 60.716 59.45C44.357 58.276 33.5 61.6 25.5 68.823V2.5z"/><path d="M71.367 112.615h-33.16c.704-5.073 2.415-9.08 5.135-12.04 2.72-2.976 6.542-4.447 11.485-4.447 4.543 0 8.35 1.404 11.405 4.194 3.072 2.79 4.784 6.9 5.135 12.293z"/><path fill="#FFF" d="M83.205 150.512c-6.59 7.576-15.82 11.364-27.69 11.364-9.79 0-18.427-3.196-25.93-9.588-7.485-6.375-11.228-16.758-11.228-31.15 0-13.477 3.39-23.81 10.142-30.996 6.765-7.187 15.53-10.79 26.313-10.79 6.414 0 12.19 1.22 17.308 3.654 5.152 2.418 9.375 6.257 12.734 11.5 3.007 4.632 4.96 9.976 5.855 16.08.527 3.586.735 8.727.64 15.457H37.743c.288 7.796 2.863 13.275 7.694 16.403 2.943 1.962 6.478 2.942 10.605 2.942 4.383 0 7.95-1.2 10.685-3.585 1.504-1.285 2.815-3.06 3.967-5.344h19.643c-.51 4.615-2.894 9.3-7.133 14.052zm-44.997-37.897h33.16c-.352-5.394-2.063-9.504-5.135-12.294-3.055-2.79-6.862-4.193-11.405-4.193-4.943 0-8.766 1.47-11.485 4.447-2.72 2.96-4.432 6.968-5.135 12.04z"/></svg>