<?xml version="1.0" encoding="utf-8"?>
<!-- Generator: Adobe Illustrator 18.1.0, SVG Export Plug-In . SVG Version: 6.00 Build 0)  -->
<svg version="1.1" id="Layer_1" xmlns="http://www.w3.org/2000/svg" xmlns:xlink="http://www.w3.org/1999/xlink" x="0px" y="0px"
	 viewBox="0 0 752 409" enable-background="new 0 0 752 409" xml:space="preserve">
<polygon fill="#A7AFAF" stroke="#000000" stroke-width="2" stroke-miterlimit="10" points="269.47,83 268.282,6 266.142,6 
	264.003,83 "/>
<polygon fill="#8D9B9E" stroke="#000000" stroke-width="1.9016" stroke-miterlimit="10" points="282.068,95.463 285.871,88.094 
	275.175,82.389 249.741,84.529 247.127,91.184 251.405,96.413 "/>
<polygon fill="#959AA5" stroke="#000000" stroke-width="1.9016" stroke-miterlimit="10" points="295.3,396.149 289.595,96.334 
	257.902,91.263 243.957,99.503 227.477,398.051 271.213,403.122 "/>
<polygon fill="#7A7C7F" stroke="#000000" stroke-width="1.9016" stroke-miterlimit="10" points="289.595,96.334 280.087,400.586 
	294.666,396.149 "/>
<polygon fill="#636D72" stroke="#000000" stroke-width="1.9016" stroke-miterlimit="10" points="257.902,91.897 281.355,358.752 
	279.453,405.657 227.477,398.051 230.963,355.265 "/>
<polygon fill="#606B75" stroke="#000000" stroke-width="1.9016" stroke-miterlimit="10" points="306.709,234.515 305.442,196.484 
	319.387,156.551 345.375,183.807 344.741,258.602 "/>
<polygon fill="#79848C" stroke="#000000" stroke-width="1.9016" stroke-miterlimit="10" points="319.545,157.343 312.573,176.359 
	325.408,188.244 330.004,167.643 "/>
<polygon fill="#79848C" stroke="#000000" stroke-width="1.9016" stroke-miterlimit="10" points="333.648,172.08 328.894,189.353 
	344.107,201.555 345.375,183.173 "/>
<polygon fill="#79848C" stroke="#000000" stroke-width="1.9016" stroke-miterlimit="10" points="311.463,179.528 305.442,197.118 
	317.485,209.636 323.348,191.888 "/>
<polygon fill="#79848C" stroke="#000000" stroke-width="1.9016" stroke-miterlimit="10" points="327.151,192.998 322.556,210.429 
	335.867,220.57 340.304,204.09 "/>
<polygon fill="#BF9B82" stroke="#000000" stroke-width="1.9016" stroke-miterlimit="10" points="342.839,275.716 377.702,277.618 
	378.969,318.819 394.182,320.72 394.816,214.232 400.52,214.866 399.887,183.173 420.17,182.539 430.946,192.047 430.312,256.066 
	435.383,259.87 436.017,380.937 344.741,375.232 "/>
<polygon fill="#9B887B" stroke="#000000" stroke-width="1.9016" stroke-miterlimit="10" points="552.013,240.854 572.296,239.586 
	587.509,245.291 590.678,340.37 626.174,337.834 623.639,269.378 631.245,247.826 636.316,257.968 643.288,238.952 651.528,257.968 
	673.714,259.236 676.249,299.803 685.757,301.704 687.025,360.653 551.379,349.878 "/>
<polygon fill="#8E8076" stroke="#000000" stroke-width="2" stroke-miterlimit="10" points="440,318.185 440,270 444.891,270 
	444.257,223.259 474.682,219.379 482.922,224.412 484.19,239.605 496.867,243.399 498.135,257.109 505.107,248 524.757,248 
	532.997,260.115 538.702,259.042 554.548,266.879 557.083,295 564.69,295 567.225,286.15 590.044,288.54 588.776,295.439 
	602.087,297.304 602.79,323.274 613,324.523 613,316.283 623.549,316.917 636.905,290.295 640.096,290.929 650.249,313.748 
	695.259,315.649 695.896,296.633 723.153,297.267 723.506,323.256 734,321.988 734,327.693 741.73,330.228 741.316,404.389 
	440.275,401.854 "/>
<path fill="#7A6F67" stroke="#000000" stroke-width="2" stroke-miterlimit="10" d="M342.047,395.629L342.205,365h41.835
	c3.803-5,8.874-8.67,13.945-8.037c5.071,0.634,8.803-0.057,10.07,3.113c7.606,0,18.945,0.577,18.945,0.577v-42.469l33.19-0.634
	l1.545,46.906L488,365.724v-55.146l4.592,1.197l0.472-5.775h8.874l0.634,6h6.972l0.634,32.408l27.89,0.516l0.634-30.484
	l32.327-0.663l1.336,49.426L613,361.921v-5.705l23.86,1.268l0.679,12.043l9.53-0.634l-1.256-44.37l26.628-0.634l3.806,69.724
	l-2.534,8.24l-331.507,1.958L342.047,395.629z"/>
<polygon fill="#A89283" stroke="#000000" stroke-width="2" stroke-miterlimit="10" points="349.495,395.357 351.238,313.035 
	346.722,311.893 347.276,248 344.107,248 342.839,241.099 301.638,242.331 302.272,248 296.568,248 297.201,259.558 295.934,312 
	292.764,312 295.3,400.188 "/>
<path fill="#7C6453" stroke="#000000" stroke-width="1.9016" stroke-miterlimit="10" d="M304.174,242.755l37.398-0.634
	c-1.268-7.606-11.409-13.945-18.382-13.945S306.075,233.248,304.174,242.755z"/>
<polygon fill="#847E79" stroke="#000000" stroke-width="2" stroke-miterlimit="10" points="7.766,394.961 6.696,297.505 
	49.422,297.98 49.408,306.775 57,306.538 57,350.511 60.55,350.749 61.968,311.529 84.902,311.767 85.673,320.086 134.667,319.611 
	134.444,405.182 "/>
<polygon fill="#665E4F" stroke="#000000" stroke-width="2" stroke-miterlimit="10" points="237.936,404.231 240.63,223.66 
	224.862,219.897 187.504,222.659 186.276,240 180.571,240 177.402,401.586 "/>
<polygon fill="#544D42" stroke="#000000" stroke-width="1.9016" stroke-miterlimit="10" points="235.083,220.57 212.898,203.456 
	189.445,217.401 190.713,222.472 226.843,219.937 234.449,223.106 "/>
<polygon fill="#826D52" stroke="#000000" stroke-width="2" stroke-miterlimit="10" points="209.887,399.635 208.224,280.312 
	187.204,275.161 144,274.448 144,287.759 139.625,287.126 138.864,308.043 133.096,308.677 134.332,400.586 "/>
<polygon fill="#776046" stroke="#000000" stroke-width="2" stroke-miterlimit="10" points="205,280.153 205,274.448 
	200.392,272.785 200.192,268.268 195,267.08 195,261.137 185.409,257.81 156.606,258.003 155.851,262 152.048,262 151.307,266.798 
	147,267.318 147,274.448 187.885,275.399 "/>
<polygon fill="#7F6D5B" stroke="#000000" stroke-width="1.9016" stroke-miterlimit="10" points="176.055,401.616 176.768,332.209 
	85.493,331.733 83.116,400.19 141.114,404.469 "/>
<polygon fill="#0F6035" stroke="#000000" stroke-width="2" stroke-miterlimit="10" points="742.748,407.083 9,406.925 9,394.248 
	100.966,397.417 104.639,400.586 120.42,396.149 145.742,395.515 150.163,400.586 205.3,393.614 238.891,396.149 274.385,401.22 
	281.356,396.149 365.659,394.882 401.788,391.078 409.395,399.319 429.044,398.829 437.284,392 496.233,392 504.473,398.987 
	515.249,391.23 578.001,389.886 585.607,396.821 683.855,391.731 689.56,394.257 741.033,390.449 "/>
<polygon fill="#269151" points="683.063,403.756 684.014,396.788 664.998,396 633.147,396 631.245,402.255 "/>
<polygon fill="#0D542A" points="447.267,394.723 460.103,392.346 475.316,395.674 479.119,403.756 456.775,402.329 "/>
<polygon fill="#269151" points="330.796,399.477 375.245,400.903 387.368,396.149 397.173,395.674 393.073,403.28 314.157,404.231 
	"/>
<polygon fill="#B9BFC1" points="258.061,123.749 248.077,240.695 277.552,348.134 "/>
<polygon fill="#D8C5B8" points="305.35,245.925 336,245.449 336,252.105 341.955,252.58 341.48,379.51 "/>
<polygon fill="#9AAF94" points="643.605,243.548 640.753,254.006 648.359,257.334 "/>
<polygon fill="#A09585" points="184.85,242.597 190.792,242.167 191.506,227 218.603,227 218.128,232.184 224.783,233.112 
	223.832,373.817 210.046,281.11 207.669,272.579 "/>
<polygon fill="#AEB9C1" points="318.911,161.305 317.96,166.059 326.042,168.911 "/>
<polygon fill="#CEBDB2" points="500.036,267 528.56,267 529.035,274.052 532.838,274.726 531.888,325.454 500.512,275.547 "/>
<polygon fill="#937661" points="427.301,193.631 419.219,185.55 421.596,317.709 "/>
</svg>
