<?xml version="1.0" encoding="utf-8"?>
<!-- Generator: Adobe Illustrator 18.1.0, SVG Export Plug-In . SVG Version: 6.00 Build 0)  -->
<svg version="1.1" xmlns="http://www.w3.org/2000/svg" xmlns:xlink="http://www.w3.org/1999/xlink" x="0px" y="0px"
	 viewBox="0 0 700 238" enable-background="new 0 0 700 238" xml:space="preserve">
<g id="Layer_2">
	<polygon fill="#B1A08C" stroke="#000000" stroke-width="2" stroke-miterlimit="10" points="689.374,218.953 686.096,126.213 
		677.432,107 657.996,107 657.06,111.226 638.326,110.061 633.409,129.148 630.13,220.298 	"/>
	<polygon fill="#35312E" stroke="#000000" stroke-width="1.8733" stroke-miterlimit="10" points="637.858,219.656 640.668,110.652 
		638.092,110.417 633.175,129.268 630.13,220.124 	"/>
	<path d="M46.823,132.78c51.048-33.252,153.145-84.768,317.529-81.958s295.986,84.3,304.884,90.388
		c-0.937,2.81-1.288,1.873-1.288,1.873c-79.265-39.691-157.945-86.173-304.065-89.451c-146.12-3.278-242.128,35.593-314.251,79.148
		C46.354,134.654,46.823,132.78,46.823,132.78z"/>
	<path d="M85.694,170.715c51.048-33.252,118.02-102.096,282.404-99.286c164.385,2.81,281.468,125.981,290.366,132.07
		c-0.937,2.81-7.493,7.962-7.493,7.962C628.96,191.322,527.331,80.795,367.63,74.239c-146.033-5.996-212.623,50.58-278.189,98.35
		C86.162,174.462,85.694,170.715,85.694,170.715z"/>
	<polygon points="90,144.489 348.396,146.986 680.382,155.26 679.069,148.235 90,139.337 	"/>
	
		<line fill="none" stroke="#000000" stroke-width="1.8733" stroke-miterlimit="10" x1="262.724" y1="57.847" x2="261.787" y2="142.147"/>
	
		<line fill="none" stroke="#000000" stroke-width="1.8733" stroke-miterlimit="10" x1="267.875" y1="55.974" x2="267.407" y2="142.147"/>
	
		<line fill="none" stroke="#000000" stroke-width="1.9348" stroke-miterlimit="10" x1="305.81" y1="54.1" x2="304.874" y2="144.02"/>
	
		<line fill="none" stroke="#000000" stroke-width="1.9252" stroke-miterlimit="10" x1="310.962" y1="53.008" x2="310.494" y2="144.02"/>
	
		<line fill="none" stroke="#000000" stroke-width="1.9515" stroke-miterlimit="10" x1="393.857" y1="53.476" x2="392.92" y2="144.957"/>
	
		<line fill="none" stroke="#000000" stroke-width="1.9367" stroke-miterlimit="10" x1="399.008" y1="54.1" x2="398.54" y2="146.206"/>
	
		<line fill="none" stroke="#000000" stroke-width="1.9548" stroke-miterlimit="10" x1="348.897" y1="52.227" x2="347.96" y2="144.02"/>
	
		<line fill="none" stroke="#000000" stroke-width="1.9351" stroke-miterlimit="10" x1="354.049" y1="52.071" x2="353.58" y2="144.02"/>
	
		<line fill="none" stroke="#000000" stroke-width="1.9128" stroke-miterlimit="10" x1="436.943" y1="58.003" x2="436.007" y2="145.894"/>
	
		<line fill="none" stroke="#000000" stroke-width="1.8733" stroke-miterlimit="10" x1="442.095" y1="59.72" x2="441.627" y2="145.894"/>
	
		<line fill="none" stroke="#000000" stroke-width="1.8277" stroke-miterlimit="10" x1="478.157" y1="65.653" x2="477.22" y2="145.894"/>
	
		<line fill="none" stroke="#000000" stroke-width="1.7936" stroke-miterlimit="10" x1="485.182" y1="66.901" x2="484.713" y2="145.894"/>
	
		<line fill="none" stroke="#000000" stroke-width="1.7252" stroke-miterlimit="10" x1="519.37" y1="76.268" x2="518.433" y2="147.767"/>
	
		<line fill="none" stroke="#000000" stroke-width="1.682" stroke-miterlimit="10" x1="526.395" y1="78.298" x2="525.927" y2="147.767"/>
	
		<line fill="none" stroke="#000000" stroke-width="1.5146" stroke-miterlimit="10" x1="562.456" y1="92.66" x2="561.52" y2="147.767"/>
	
		<line fill="none" stroke="#000000" stroke-width="1.4702" stroke-miterlimit="10" x1="571.355" y1="94.689" x2="570.886" y2="147.767"/>
	
		<line fill="none" stroke="#000000" stroke-width="1.2226" stroke-miterlimit="10" x1="614.91" y1="113.735" x2="613.973" y2="149.64"/>
	
		<line fill="none" stroke="#000000" stroke-width="1.136" stroke-miterlimit="10" x1="623.808" y1="117.95" x2="623.34" y2="149.64"/>
	
		<line fill="none" stroke="#000000" stroke-width="1.7954" stroke-miterlimit="10" x1="217.764" y1="64.716" x2="216.827" y2="142.147"/>
	
		<line fill="none" stroke="#000000" stroke-width="1.7865" stroke-miterlimit="10" x1="222.916" y1="63.779" x2="222.447" y2="142.147"/>
	
		<line fill="none" stroke="#000000" stroke-width="1.6502" stroke-miterlimit="10" x1="174.677" y1="76.736" x2="173.741" y2="142.147"/>
	
		<line fill="none" stroke="#000000" stroke-width="1.6592" stroke-miterlimit="10" x1="177.956" y1="74.551" x2="177.487" y2="142.147"/>
	
		<line fill="none" stroke="#000000" stroke-width="1.4217" stroke-miterlimit="10" x1="129.717" y1="91.723" x2="128.781" y2="140.274"/>
	
		<line fill="none" stroke="#000000" stroke-width="1.4374" stroke-miterlimit="10" x1="132.996" y1="89.538" x2="132.527" y2="140.274"/>
	
		<line fill="none" stroke="#000000" stroke-width="1.1388" stroke-miterlimit="10" x1="88.036" y1="110.3" x2="87.567" y2="142.147"/>
	
		<line fill="none" stroke="#000000" stroke-width="1.136" stroke-miterlimit="10" x1="89.753" y1="113.266" x2="128.468" y2="139.805"/>
	
		<line fill="none" stroke="#000000" stroke-width="1.136" stroke-miterlimit="10" x1="132.84" y1="90.474" x2="173.428" y2="113.891"/>
	
		<line fill="none" stroke="#000000" stroke-width="1.136" stroke-miterlimit="10" x1="178.424" y1="76.112" x2="215.891" y2="93.284"/>
	
		<line fill="none" stroke="#000000" stroke-width="1.136" stroke-miterlimit="10" x1="223.072" y1="64.56" x2="261.163" y2="81.108"/>
	
		<line fill="none" stroke="#000000" stroke-width="1.136" stroke-miterlimit="10" x1="268.032" y1="57.379" x2="304.874" y2="73.614"/>
	
		<line fill="none" stroke="#000000" stroke-width="1.136" stroke-miterlimit="10" x1="311.118" y1="53.944" x2="347.96" y2="71.429"/>
	
		<line fill="none" stroke="#000000" stroke-width="1.136" stroke-miterlimit="10" x1="393.545" y1="54.257" x2="354.205" y2="71.741"/>
	
		<line fill="none" stroke="#000000" stroke-width="1.136" stroke-miterlimit="10" x1="436.943" y1="58.003" x2="399.477" y2="73.926"/>
	
		<line fill="none" stroke="#000000" stroke-width="1.136" stroke-miterlimit="10" x1="478.781" y1="65.809" x2="443.5" y2="80.795"/>
	
		<line fill="none" stroke="#000000" stroke-width="1.136" stroke-miterlimit="10" x1="519.682" y1="76.736" x2="485.962" y2="94.845"/>
	
		<line fill="none" stroke="#000000" stroke-width="1.136" stroke-miterlimit="10" x1="562.456" y1="91.099" x2="525.927" y2="112.954"/>
	
		<line fill="none" stroke="#000000" stroke-width="1.136" stroke-miterlimit="10" x1="615.534" y1="114.515" x2="570.574" y2="147.299"/>
	
		<line fill="none" stroke="#000000" stroke-width="1.136" stroke-miterlimit="10" x1="649.878" y1="132.624" x2="623.652" y2="147.923"/>
	<polygon fill="#B1A08C" stroke="#000000" stroke-width="2" stroke-miterlimit="10" points="689.374,218.953 686.096,126.213 
		677.432,107 657.996,107 657.06,111.226 655.342,124.813 655.186,167.746 654.406,219.576 	"/>
	<polygon fill="#35312E" stroke="#000000" stroke-width="1.8733" stroke-miterlimit="10" points="656.708,219.656 657.06,111.237 
		653.664,111.12 650.503,124.819 649.332,219.89 	"/>
</g>
<g id="Layer_1">
	<path stroke="#000000" stroke-width="1.8733" stroke-miterlimit="10" d="M170.261,198.815c-1.873-9.835-33.72-62.757-39.34-66.035
		c3.278,29.037,19.202,66.972,19.202,66.972L170.261,198.815z"/>
	<path fill="#FFFFFF" stroke="#000000" stroke-width="1.8733" stroke-miterlimit="10" d="M388.504,184.765
		c0,0,21.075-42.15,32.315-49.643c-23.417-1.873-51.985-6.088-64.161,1.405c-12.177,7.493-29.973,59.01-29.973,59.01l17.328,0.468
		L388.504,184.765z"/>
	<polygon fill="#D0D1D6" points="360.404,140.274 371.644,137.932 359.468,182.892 	"/>
	<path fill="#FFFFFF" stroke="#000000" stroke-width="1.8733" stroke-miterlimit="10" d="M351.038,196.005
		c0,0,17.328-73.06,24.353-85.236c-17.328,2.342-68.845,7.493-80.085,85.705C317.318,196.005,351.038,196.005,351.038,196.005z"/>
	<path fill="#FFFFFF" stroke="#000000" stroke-width="1.8733" stroke-miterlimit="10" d="M305.141,195.537l-111.463,3.747
		c4.683-24.353,26.227-112.868,118.02-128.323C306.546,120.604,305.141,195.537,305.141,195.537z"/>
	<path fill="#EFEFEF" stroke="#000000" stroke-width="1.8733" stroke-miterlimit="10" d="M311.229,196.005l-72.123,2.342
		c1.405-13.582,9.835-91.325,101.16-119.425C322.938,112.642,311.229,196.005,311.229,196.005z"/>
	<path fill="#FFFFFF" stroke="#000000" stroke-width="2" stroke-miterlimit="10" d="M130.219,130.155
		C145.674,127.813,220.841,115,233.954,199c-35.593,0-62.757,0-62.757,0C171.198,186,130.219,130.155,130.219,130.155z"/>
	<path fill="#D0D1D6" d="M187.121,140.274c-5.62-1.873-18.733-2.81-21.075-2.81c5.152,7.025,15.923,35.125,16.392,43.087
		C184.78,168.373,187.121,140.274,187.121,140.274z"/>
	<path fill="#FFFFFF" stroke="#000000" stroke-width="1.8733" stroke-miterlimit="10" d="M296.243,196.005
		c-10.303-18.265-53.858-60.883-118.956-54.327c12.177,18.265,23.885,56.668,23.885,56.668L296.243,196.005z"/>
	<path fill="#F4F3F2" stroke="#000000" stroke-width="1.8733" stroke-miterlimit="10" d="M79.405,212.397
		c-6.557-5.152-39.34-43.087-47.77-48.238c12.645-8.43,63.225,6.088,65.098,8.43c10.303-5.62,41.213-11.708,44.023-11.708
		c-8.43,8.898-22.948,31.847-22.012,37.467C102.353,202.093,79.405,212.397,79.405,212.397z"/>
	<polygon fill="#CAA789" stroke="#000000" stroke-width="2" stroke-miterlimit="10" points="118.745,198.347 48.31,223.637 
		416,220.827 416,184.765 372.279,185.233 343.159,195.537 	"/>
	<polygon fill="#A07D70" stroke="#000000" stroke-width="2" stroke-miterlimit="10" points="9.045,233.238 496,229.257 496,220.358 
		7.585,224.105 	"/>
	<polygon fill="#917150" points="152.465,213 194,213 194,207 150.591,207 	"/>
	<path fill="#686868" d="M95.796,176.803c0,0,18.265,13.113,19.202,17.797c6.557-11.24,13.582-23.885,16.392-25.29
		C124.365,168.373,98.606,173.993,95.796,176.803z"/>
</g>
</svg>
